
      <svg data-logo="logo" xmlns="http://www.w3.org/2000/svg" viewBox="0 0 280 43">
        <g id="logogram" transform="translate(0, 1.5) rotate(0) "><path fill-rule="evenodd" clip-rule="evenodd" d="M20 0C27.4768 0 31.2154 -0.000204921 34 1.60742C35.8242 2.66064 37.3394 4.17577 38.3926 6C40.0002 8.7846 40 12.5232 40 20C40 27.4768 40.0002 31.2154 38.3926 34C37.3394 35.8242 35.8242 37.3394 34 38.3926C31.2154 40.0002 27.4768 40 20 40C12.5232 40 8.7846 40.0002 6 38.3926C4.17577 37.3394 2.66064 35.8242 1.60742 34C-0.000204921 31.2154 0 27.4768 0 20C0 12.5232 -0.000204921 8.7846 1.60742 6C2.66064 4.17577 4.17577 2.66064 6 1.60742C8.7846 -0.000204921 12.5232 0 20 0ZM22 4C13.1634 4 6 11.1634 6 20C6 28.8366 13.1634 36 22 36C30.8366 36 38 28.8366 38 20C38 11.1634 30.8366 4 22 4Z" fill="#6988BA"/><path d="M36 20C36 25.5228 31.5228 30 26 30C20.4772 30 16 25.5228 16 20C16 14.4772 20.4772 10 26 10C31.5228 10 36 14.4772 36 20Z" fill="#C89F2B"/></g>
        <g id="logotype" transform="translate(46, 1)"><path fill="#ffffff" d="M18.81 33.45L18.81 33.45Q13.21 33.45 10.25 30.50Q7.29 27.54 7.29 21.34L7.29 21.34Q7.29 15.32 10.13 12.23Q12.96 9.13 18.81 9.13L18.81 9.13Q20.66 9.13 22.56 9.58Q24.45 10.04 26.23 10.84L26.23 10.84L26.23 15.78Q24.41 14.59 22.73 14.06Q21.05 13.54 19.58 13.54L19.58 13.54Q17.52 13.54 16.10 14.27Q14.68 15.01 13.93 16.72Q13.18 18.44 13.18 21.34L13.18 21.34Q13.18 24.25 13.93 25.93Q14.68 27.61 16.17 28.33Q17.66 29.04 19.83 29.04L19.83 29.04Q21.12 29.04 22.77 28.55Q24.41 28.06 26.23 26.88L26.23 26.88L26.23 31.81Q25.25 32.30 24.01 32.67Q22.77 33.03 21.42 33.24Q20.07 33.45 18.81 33.45ZM38.34 33.52L38.34 33.52Q33.86 33.52 31.60 31.13Q29.35 28.73 29.35 24.07L29.35 24.07Q29.35 19.07 31.64 16.88Q33.93 14.69 38.34 14.69L38.34 14.69Q41.31 14.69 43.33 15.69Q45.34 16.69 46.37 18.75Q47.41 20.82 47.41 24.07L47.41 24.07Q47.41 28.73 45.06 31.13Q42.72 33.52 38.34 33.52ZM38.34 29.36L38.34 29.36Q39.64 29.36 40.49 28.75Q41.35 28.13 41.79 26.96Q42.23 25.79 42.23 24.07L42.23 24.07Q42.23 22.11 41.79 20.98Q41.35 19.84 40.48 19.33Q39.60 18.82 38.34 18.82L38.34 18.82Q37.01 18.82 36.17 19.35Q35.33 19.88 34.93 21.01Q34.52 22.15 34.52 24.07L34.52 24.07Q34.52 26.73 35.45 28.05Q36.38 29.36 38.34 29.36ZM51.01 33L51.01 16.79Q51.68 16.44 52.76 16.08Q53.85 15.71 55.14 15.43Q56.44 15.15 57.75 14.97Q59.06 14.80 60.18 14.80L60.18 14.80Q62.56 14.80 64.24 15.41Q65.92 16.02 66.81 17.39Q67.71 18.75 67.71 21.10L67.71 21.10L67.71 33L62.49 33L62.49 22.15Q62.49 21.48 62.30 20.92Q62.11 20.36 61.72 19.96Q61.34 19.56 60.67 19.33Q60.01 19.10 59.06 19.10L59.06 19.10Q58.26 19.10 57.45 19.30Q56.65 19.49 56.23 19.70L56.23 19.70L56.23 33L51.01 33ZM72.33 33L72.33 16.79Q72.99 16.44 74.08 16.08Q75.16 15.71 76.45 15.43Q77.75 15.15 79.06 14.97Q80.38 14.80 81.50 14.80L81.50 14.80Q83.88 14.80 85.56 15.41Q87.23 16.02 88.13 17.39Q89.02 18.75 89.02 21.10L89.02 21.10L89.02 33L83.81 33L83.81 22.15Q83.81 21.48 83.61 20.92Q83.42 20.36 83.03 19.96Q82.65 19.56 81.98 19.33Q81.32 19.10 80.38 19.10L80.38 19.10Q79.57 19.10 78.77 19.30Q77.96 19.49 77.54 19.70L77.54 19.70L77.54 33L72.33 33ZM101.66 33.52L101.66 33.52Q99.00 33.52 96.95 32.42Q94.90 31.32 93.76 29.27Q92.63 27.23 92.63 24.39L92.63 24.39Q92.63 19.77 94.92 17.23Q97.21 14.69 101.48 14.69L101.48 14.69Q104.42 14.69 106.22 15.95Q108.03 17.21 108.86 19.63Q109.70 22.04 109.67 25.51L109.67 25.51L96.19 25.51L95.64 22.18L105.36 22.18L104.59 23.83Q104.56 20.99 103.79 19.84Q103.02 18.68 101.27 18.68L101.27 18.68Q100.29 18.68 99.50 19.17Q98.72 19.66 98.28 20.80Q97.84 21.94 97.84 23.93L97.84 23.93Q97.84 26.45 99.05 27.82Q100.25 29.18 102.91 29.18L102.91 29.18Q103.89 29.18 104.86 28.96Q105.82 28.73 106.66 28.41Q107.50 28.10 108.09 27.86L108.09 27.86L108.09 32.34Q106.83 32.86 105.28 33.19Q103.72 33.52 101.66 33.52ZM121.61 33.45L121.61 33.45Q119.72 33.45 118.03 32.90Q116.36 32.34 115.06 31.21Q113.77 30.09 113.03 28.38Q112.30 26.66 112.30 24.39L112.30 24.39Q112.30 21.98 113.00 20.17Q113.69 18.37 114.94 17.18Q116.18 15.99 117.86 15.39Q119.54 14.80 121.57 14.80L121.57 14.80Q123.00 14.80 124.53 15.10Q126.05 15.39 127.20 15.92L127.20 15.92L127.20 20.40Q125.98 19.84 124.81 19.47Q123.64 19.10 122.41 19.10L122.41 19.10Q120.20 19.10 118.86 20.21Q117.51 21.31 117.51 23.80L117.51 23.80Q117.51 26.42 118.70 27.75Q119.89 29.08 122.66 29.08L122.66 29.08Q123.95 29.08 125.16 28.63Q126.37 28.17 127.24 27.68L127.24 27.68L127.24 32.13Q126.02 32.76 124.69 33.10Q123.36 33.45 121.61 33.45ZM138.13 33.70L138.13 33.70Q135.04 33.70 133.54 32.25Q132.03 30.80 132.03 28.13L132.03 28.13L132.03 19.28L129.44 19.28L129.44 15.29L132.03 15.29L132.03 10.42L137.50 10.42L137.50 15.29L141.38 15.29L141.38 19.28L137.50 19.28L137.50 27.47Q137.50 28.38 137.88 28.82Q138.26 29.25 139.17 29.25L139.17 29.25Q139.70 29.25 140.33 29.04Q140.96 28.84 141.38 28.52L141.38 28.52L141.38 33Q140.64 33.38 139.79 33.54Q138.93 33.70 138.13 33.70ZM151.18 33L145.51 33L145.51 9.65L156.89 9.65Q160.84 9.65 163.08 11.49Q165.32 13.33 165.32 17.07L165.32 17.07Q165.32 18.61 164.69 20.10Q164.06 21.59 162.84 22.66Q161.61 23.73 159.75 24.04L159.75 24.04L159.41 22.11L166.51 33L159.30 33L153.46 22.81L155.97 24.95L151.18 24.95L151.18 33ZM151.18 14.03L151.18 20.78L155.94 20.78Q157.44 20.78 158.32 19.98Q159.19 19.17 159.19 17.32L159.19 17.32Q159.19 15.71 158.41 14.87Q157.62 14.03 156.19 14.03L156.19 14.03L151.18 14.03ZM175.50 33L170.25 33L170.25 15.53L175.47 15.53L175.50 33ZM175.54 12.87L170.15 12.87L170.15 8.85L175.54 8.85L175.54 12.87ZM186.95 33.52L186.95 33.52Q184.53 33.38 182.80 32.41Q181.07 31.43 180.11 29.52Q179.14 27.61 179.14 24.70L179.14 24.70Q179.14 21.77 179.88 19.82Q180.61 17.88 181.93 16.79Q183.24 15.71 185.09 15.25Q186.95 14.80 189.22 14.80L189.22 14.80Q191.43 14.80 193.07 15.36Q194.72 15.92 195.63 16.97Q196.54 18.02 196.54 19.56L196.54 19.56L196.54 33.21Q196.54 35.06 195.94 36.48Q195.35 37.90 194.18 38.86Q193.00 39.83 191.34 40.31Q189.68 40.80 187.51 40.80L187.51 40.80Q185.16 40.80 183.50 40.47Q181.84 40.14 180.97 39.65L180.97 39.65L180.97 35.06Q181.49 35.27 182.50 35.63Q183.52 35.98 184.78 36.20Q186.04 36.43 187.30 36.43L187.30 36.43Q188.94 36.43 189.84 35.98Q190.73 35.52 191.08 34.75Q191.43 33.98 191.43 33L191.43 33L191.43 30.13L192.44 30.86Q191.88 31.67 191.12 32.27Q190.34 32.86 189.31 33.19Q188.28 33.52 186.95 33.52ZM188.28 29.61L188.28 29.61Q189.19 29.61 189.96 29.41Q190.73 29.22 191.43 28.84L191.43 28.84L191.43 20.71Q191.43 19.98 191.01 19.59Q190.59 19.21 189.96 19.07Q189.33 18.93 188.63 18.93L188.63 18.93Q187.02 18.93 186.09 19.63Q185.16 20.33 184.76 21.57Q184.36 22.81 184.36 24.39L184.36 24.39Q184.36 26.80 185.44 28.20Q186.53 29.61 188.28 29.61ZM206.09 33L200.91 33L200.91 8.29L206.16 8.29L206.16 18.79L203.96 17.60Q205.36 16.38 207.27 15.59Q209.17 14.80 211.17 14.80L211.17 14.80Q213.09 14.80 214.56 15.43Q216.03 16.06 216.86 17.48Q217.68 18.89 217.68 21.38L217.68 21.38L217.68 33L212.47 33L212.47 22.46Q212.47 20.71 211.61 19.93Q210.75 19.14 209.10 19.14L209.10 19.14Q208.26 19.14 207.44 19.37Q206.62 19.59 206.16 19.95L206.16 19.95L206.09 33ZM229.54 33.70L229.54 33.70Q226.46 33.70 224.96 32.25Q223.45 30.80 223.45 28.13L223.45 28.13L223.45 19.28L220.86 19.28L220.86 15.29L223.45 15.29L223.45 10.42L228.91 10.42L228.91 15.29L232.80 15.29L232.80 19.28L228.91 19.28L228.91 27.47Q228.91 28.38 229.30 28.82Q229.68 29.25 230.59 29.25L230.59 29.25Q231.12 29.25 231.75 29.04Q232.38 28.84 232.80 28.52L232.80 28.52L232.80 33Q232.06 33.38 231.21 33.54Q230.35 33.70 229.54 33.70Z"/></g>
        
      </svg>
    